# xmcd CD database file
#
# Track frame offsets:
#	150
#	10197
#	20192
#	30455
#	42975
#	53550
#	64730
#	75670
#	85575
#	97042
#	107775
#	116915
#	129672
#	138887
#	150900
#	162897
#	172357
#	182100
#	195600
#	204997
#
# Disc length: 2875 seconds
#
# Revision: 1
# Processed by: cddbd v1.5.2PL0 Copyright (c) Steve Scherf et al.
# Submitted via: CDex 1.70beta2
#
DISCID=090b3914
DTITLE=Norma Jean - My Best To You
DYEAR=1996
DGENRE=Country
TTITLE0=Company's Comin'
TTITLE1=Thank You For Loving Me
TTITLE2=Whiskey, Six Years Old
TTITLE3=Let's Go All The Way
TTITLE4=Lonesome Number One
TTITLE5=Jackson Ain't A Very Big Town
TTITLE6=You're Drivin' Me Out Of My Mind
TTITLE7=Put Your Arms Around Her
TTITLE8=I'm A Walkin' Advertisment (For The Blues)
TTITLE9=Then, Go Home To Her
TTITLE10=You Have To Be Out Of Your Mind
TTITLE11=I Can't See Me Without You
TTITLE12=I Wouldn't Buy A Used Car From Him
TTITLE13=Conscience Keep An Eye On Me Tonight
TTITLE14=The Game Of Triangles (with Bobby Bare and Liz Anderson)
TTITLE15=Don't Let That Doorknob Hit You
TTITLE16=Go Cat Go
TTITLE17=The Shirt
TTITLE18=Heaven Help The Workin' Girl
TTITLE19=Truck Drivin' Woman
EXTD=YEAR: 1996
EXTT0=
EXTT1=
EXTT2=
EXTT3=
EXTT4=
EXTT5=
EXTT6=
EXTT7=
EXTT8=
EXTT9=
EXTT10=
EXTT11=
EXTT12=
EXTT13=
EXTT14=
EXTT15=
EXTT16=
EXTT17=
EXTT18=
EXTT19=
PLAYORDER=
